<?xml version="1.0" encoding="UTF-8" standalone="no"?>
<svg
   xmlns:dc="http://purl.org/dc/elements/1.1/"
   xmlns:cc="http://creativecommons.org/ns#"
   xmlns:rdf="http://www.w3.org/1999/02/22-rdf-syntax-ns#"
   xmlns:svg="http://www.w3.org/2000/svg"
   xmlns="http://www.w3.org/2000/svg"
   xmlns:sodipodi="http://sodipodi.sourceforge.net/DTD/sodipodi-0.dtd"
   xmlns:inkscape="http://www.inkscape.org/namespaces/inkscape"
   id="svg5900"
   version="1.1"
   viewBox="0 0 183.39975 145.519"
   height="145.52083mm"
   width="183.40205mm"
   sodipodi:docname="logo_carre_blanc.svg"
   inkscape:version="0.92.4 (5da689c313, 2019-01-14)"
   inkscape:export-filename="/home/samuel/Images/qwild/png/logo_carre.png"
   inkscape:export-xdpi="83.089996"
   inkscape:export-ydpi="83.089996">
  <sodipodi:namedview
     pagecolor="#ffffff"
     bordercolor="#666666"
     borderopacity="1"
     objecttolerance="10"
     gridtolerance="10"
     guidetolerance="10"
     inkscape:pageopacity="0"
     inkscape:pageshadow="2"
     inkscape:window-width="1600"
     inkscape:window-height="849"
     id="namedview19"
     showgrid="false"
     fit-margin-top="0"
     fit-margin-left="0"
     fit-margin-right="0"
     fit-margin-bottom="0"
     inkscape:zoom="0.55980349"
     inkscape:cx="559.70662"
     inkscape:cy="293.19807"
     inkscape:window-x="0"
     inkscape:window-y="25"
     inkscape:window-maximized="1"
     inkscape:current-layer="svg5900"
     scale-x="0.06458" />
  <defs
     id="defs5894" />
  <metadata
     id="metadata5897">
    <rdf:RDF>
      <cc:Work
         rdf:about="">
        <dc:format>image/svg+xml</dc:format>
        <dc:type
           rdf:resource="http://purl.org/dc/dcmitype/StillImage" />
        <dc:title />
      </cc:Work>
    </rdf:RDF>
  </metadata>
  <g
     id="g4562"
     style="fill-opacity:1;fill:#ffffff">
    <g
       id="text6636"
       style="font-style:normal;font-weight:normal;font-size:10.58333302px;line-height:1.25;font-family:sans-serif;letter-spacing:0px;word-spacing:0px;fill:#ffffff;fill-opacity:1;stroke:none;stroke-width:0.26458332"
       transform="rotate(-90,-36.667187,-28.862469)"
       aria-label="QWILD">
      <path
         id="path4518"
         style="font-style:normal;font-variant:normal;font-stretch:normal;font-size:42.33333206px;font-family:'Avenir Next';-inkscape-font-specification:'Avenir Next, weight=280';font-variant-ligatures:normal;font-variant-caps:normal;font-variant-numeric:normal;font-feature-settings:normal;text-align:start;writing-mode:lr-tb;text-anchor:start;fill:#ffffff;fill-opacity:1;stroke-width:0.26458332"
         d="m -175.38365,7.8047177 h 4.21679 l 6.49056,26.0862623 6.46989,-26.0862623 h 4.69222 l 6.49056,26.0862623 6.46989,-26.0862623 h 4.23747 l -7.75147,30.8611643 h -5.25032 l -6.51123,-26.789062 -6.57324,26.789062 h -5.25033 z"
         inkscape:connector-curvature="0" />
      <path
         id="path4520"
         style="font-style:normal;font-variant:normal;font-stretch:normal;font-size:42.33333206px;font-family:'Avenir Next';-inkscape-font-specification:'Avenir Next, weight=280';font-variant-ligatures:normal;font-variant-caps:normal;font-variant-numeric:normal;font-feature-settings:normal;text-align:start;writing-mode:lr-tb;text-anchor:start;fill:#ffffff;fill-opacity:1;stroke-width:0.26458332"
         d="m -130.79723,7.8047177 h 4.17546 V 38.665882 h -4.17546 z"
         inkscape:connector-curvature="0" />
      <path
         id="path4522"
         style="font-style:normal;font-variant:normal;font-stretch:normal;font-size:42.33333206px;font-family:'Avenir Next';-inkscape-font-specification:'Avenir Next, weight=280';font-variant-ligatures:normal;font-variant-caps:normal;font-variant-numeric:normal;font-feature-settings:normal;text-align:start;writing-mode:lr-tb;text-anchor:start;fill:#ffffff;fill-opacity:1;stroke-width:0.26458332"
         d="m -118.3122,7.8047177 h 4.17545 V 35.151885 h 15.027509 v 3.513997 H -118.3122 Z"
         inkscape:connector-curvature="0" />
      <path
         id="path4524"
         style="font-style:normal;font-variant:normal;font-stretch:normal;font-size:42.33333206px;font-family:'Avenir Next';-inkscape-font-specification:'Avenir Next, weight=280';font-variant-ligatures:normal;font-variant-caps:normal;font-variant-numeric:normal;font-feature-settings:normal;text-align:start;writing-mode:lr-tb;text-anchor:start;fill:#ffffff;fill-opacity:1;stroke-width:0.26458332"
         d="m -90.572294,11.236033 v 23.998534 h 5.04362 q 6.387207,0 9.343098,-2.89388 2.976563,-2.89388 2.976563,-9.136393 0,-6.201172 -2.976563,-9.074381 -2.955891,-2.89388 -9.343098,-2.89388 z m -4.175455,-3.4313153 h 8.578287 q 8.971028,0 13.167155,3.7413733 4.196126,3.720703 4.196126,11.658203 0,7.978841 -4.216797,11.720215 -4.216797,3.741373 -13.146484,3.741373 h -8.578287 z"
         inkscape:connector-curvature="0" />
    </g>
    <path
       inkscape:connector-curvature="0"
       id="text6640"
       d="m 29.074196,110.17519 c -0.131022,2.16182 -1.19471,4.46274 -2.449981,6.42131 -2.746113,-1.94597 -6.225795,-2.92075 -10.44174,-2.92075 -4.878255,0 -8.7643225,1.29536 -11.6582027,3.88607 -2.9076605,2.59071 -4.36149093,6.04959 -4.36149093,10.37663 0,4.34082 1.45383043,7.81347 4.36149093,10.41797 2.8938802,2.59071 6.7799477,3.88606 11.6582027,3.88606 4.878256,0 8.764324,-1.29535 11.658204,-3.88606 2.89388,-2.6045 4.34082,-6.07715 4.34082,-10.41797 0,-3.91937 -1.191397,-7.12374 -3.565673,-9.61854 1.493314,-2.23027 2.87061,-4.99557 3.052009,-7.98866 z m -12.891721,7.90339 c 3.198459,0 5.844725,0.60392 7.941635,1.80816 -0.932802,1.05611 -1.622123,1.69085 -1.622123,1.69085 l 1.753898,1.91978 c 0,0 0.845461,-0.77837 1.952852,-2.04742 1.721324,1.68022 2.582788,3.84266 2.582788,6.4885 0,3.03168 -1.12999,5.44325 -3.389974,7.2347 -2.259982,1.77767 -5.333008,2.6665 -9.219076,2.6665 -3.899847,0 -6.9797629,-0.88883 -9.2397456,-2.6665 -2.2599826,-1.79145 -3.3899741,-4.20302 -3.3899741,-7.2347 0,-3.03169 1.1299915,-5.42948 3.3899741,-7.19336 2.2599827,-1.77767 5.3398986,-2.66651 9.2397456,-2.66651 z"
       style="font-style:normal;font-variant:normal;font-weight:normal;font-stretch:normal;font-size:42.33333206px;line-height:1.25;font-family:'Avenir Next';-inkscape-font-specification:'Avenir Next, Normal';font-variant-ligatures:normal;font-variant-caps:normal;font-variant-numeric:normal;font-feature-settings:normal;text-align:start;letter-spacing:0px;word-spacing:0px;writing-mode:lr-tb;text-anchor:start;fill:#ffffff;fill-opacity:1;stroke:none;stroke-width:0.26458332" />
  </g>
  <rect
     style="opacity:1;fill:#ffffff;fill-opacity:1;fill-rule:evenodd;stroke:none;stroke-width:1.0034771;stroke-linecap:square;stroke-linejoin:round;stroke-miterlimit:4;stroke-dasharray:none;stroke-opacity:1"
     id="rect5902"
     width="145.51901"
     height="145.51901"
     x="37.880749"
     y="3.8615217e-06"
     ry="10.913924" />
  <path
     style="color:#000000;font-style:normal;font-variant:normal;font-weight:normal;font-stretch:normal;font-size:medium;line-height:normal;font-family:sans-serif;font-variant-ligatures:normal;font-variant-position:normal;font-variant-caps:normal;font-variant-numeric:normal;font-variant-alternates:normal;font-feature-settings:normal;text-indent:0;text-align:start;text-decoration:none;text-decoration-line:none;text-decoration-style:solid;text-decoration-color:#000000;letter-spacing:normal;word-spacing:normal;text-transform:none;writing-mode:lr-tb;direction:ltr;text-orientation:mixed;dominant-baseline:auto;baseline-shift:baseline;text-anchor:start;white-space:normal;shape-padding:0;clip-rule:nonzero;display:inline;overflow:visible;visibility:visible;opacity:1;isolation:auto;mix-blend-mode:normal;color-interpolation:sRGB;color-interpolation-filters:linearRGB;solid-color:#000000;solid-opacity:1;vector-effect:none;fill:#1fa08d;fill-opacity:1;fill-rule:nonzero;stroke:none;stroke-width:5.72297573;stroke-linecap:butt;stroke-linejoin:miter;stroke-miterlimit:4;stroke-dasharray:none;stroke-dashoffset:0;stroke-opacity:1;color-rendering:auto;image-rendering:auto;shape-rendering:auto;text-rendering:auto;enable-background:accumulate"
     d="m 110.48528,8.0845581 c -0.41829,-9.7e-5 -0.83479,0.0029 -1.25027,0.00938 C 96.357034,8.2914538 81.938137,10.62696 70.336489,19.985148 58.734711,29.343304 51.274114,45.422617 51.192364,68.931769 c -0.08246,23.716151 8.210538,40.507431 20.140219,50.481171 11.92968,9.97381 26.635572,13.10725 39.107197,12.60673 7.44449,-0.29847 15.79822,-1.36306 23.85694,-4.46801 6.41884,5.14558 15.84113,9.51487 28.4844,9.75038 l 7.04377,0.13259 0.26388,-14.08689 -7.04377,-0.13226 c -6.41112,-0.53325 -10.90639,-1.89181 -14.43943,-4.057 10.97113,-9.32241 18.43496,-24.954994 18.91317,-47.82775 C 168.01231,47.721863 160.618,30.989337 148.98043,20.964442 137.70645,11.252853 123.4518,8.087378 110.48515,8.0843738 Z"
     id="path6447"
     inkscape:connector-curvature="0" />
  <path
     id="path6449-3"
     d="m 95.027783,59.596052 c -8.467374,0.964313 -16.320972,3.58102 -23.404313,8.863168 -4.694308,3.500617 -5.866721,6.474773 -4.925622,12.580148 0.587645,3.812387 4.84523,6.471992 7.958212,6.834467 3.785514,0.440799 6.286145,0.951125 9.136478,3.986463 1.997905,2.127612 2.636935,7.828957 3.587897,10.572712 1.62534,4.68945 2.664034,6.35074 5.729544,10.22552 3.502882,4.42752 9.179491,6.8961 14.435961,4.34234 6.13134,-2.97878 10.71784,-8.94096 13.0971,-15.39685 3.23677,-8.782669 4.9764,-18.514522 3.39918,-27.930788 -0.99129,-5.918139 -5.01566,-11.239319 -10.6499,-12.848279 -5.64534,-1.612141 -12.641,-1.880714 -18.364537,-1.228901 z"
     style="fill:#ffffff;fill-opacity:1;stroke:none;stroke-width:0.10855972px;stroke-linecap:butt;stroke-linejoin:miter;stroke-opacity:1"
     inkscape:connector-curvature="0"
     sodipodi:nodetypes="ssssssssssss" />
  <path
     id="path6460-6"
     d="m 77.001694,58.654704 c 0,0 -9.798209,-13.947834 2.601461,-21.708153 9.290924,-5.81469 22.522775,-13.825578 22.224715,-5.514031 -0.41764,11.646098 -20.738139,34.199812 -24.826176,27.222184 z"
     style="fill:#ffffff;fill-opacity:1;stroke:none;stroke-width:0.09266365px;stroke-linecap:butt;stroke-linejoin:miter;stroke-opacity:1"
     inkscape:connector-curvature="0" />
  <path
     id="path6460-1-7"
     d="m 133.9952,27.658879 c 0,0 3.19877,7.990415 -6.30297,16.715907 -6.8244,6.266741 -17.04324,12.92423 -18.45113,6.272504 -2.95424,-13.956151 -0.35423,-24.658269 24.7541,-22.988411 z"
     style="fill:#0c3b34;fill-opacity:1;stroke:none;stroke-width:0.07732189px;stroke-linecap:butt;stroke-linejoin:miter;stroke-opacity:1"
     inkscape:connector-curvature="0" />
  <path
     id="path6460-4-5"
     d="m 154.88293,75.238195 c 0,0 -0.36444,27.133525 -13.46016,27.018335 -9.9044,-0.0873 -16.96362,-4.649807 -12.23943,-10.153891 6.44163,-7.504899 23.07463,-23.592907 25.69959,-16.864444 z"
     style="fill:#ffffff;fill-opacity:1;stroke:none;stroke-width:0.082828px;stroke-linecap:butt;stroke-linejoin:miter;stroke-opacity:1"
     inkscape:connector-curvature="0"
     sodipodi:nodetypes="cscc" />
  <path
     id="path6460-1-3-3"
     d="m 132.63467,68.699588 c 0,0 -18.76485,-5.242696 -1.90885,-16.663033 8.03224,-5.442208 22.1291,-14.531321 22.74951,-6.087739 1.22774,16.712789 -8.70237,22.555806 -20.84066,22.750772 z"
     style="fill:#ffffff;fill-opacity:1;stroke:none;stroke-width:0.0853038px;stroke-linecap:butt;stroke-linejoin:miter;stroke-opacity:1"
     inkscape:connector-curvature="0" />
</svg>
