<?xml version="1.0" encoding="utf-8"?>
<!-- Generator: Adobe Illustrator 25.0.1, SVG Export Plug-In . SVG Version: 6.00 Build 0)  -->
<svg version="1.1" id="Calque_1" xmlns="http://www.w3.org/2000/svg" xmlns:xlink="http://www.w3.org/1999/xlink" x="0px" y="0px"
	 viewBox="0 0 2000 2000" style="enable-background:new 0 0 2000 2000;" xml:space="preserve">
<style type="text/css">
	.st0{fill:#1FA08D;}
	.st1{fill:#B3B3B3;}
	.st2{fill:#F0ECE2;}
	.st3{fill:#BFE4F4;}
	.st4{fill:#D2EEF9;}
	.st5{fill:#9ED0EE;}
	.st6{fill:#C3E8F8;}
	.st7{fill:#B3E0F6;}
	.st8{fill:#B0B4C4;}
	.st9{fill:#0C3B34;}
	.st10{fill:#CBCBCB;}
	.st11{fill:#B2B2B2;}
	.st12{fill:#919191;}
	.st13{fill:#FFFFFF;}
	.st14{fill:#FECE09;}
	.st15{fill:#B1B1B4;}
	.st16{fill:#E2E2E4;}
</style>
<path class="st0" d="M1902.3,931.7l-546.5,381.7L1171,1993.1l138.9-26.1l555.5-389.7c0,0,56.4-23.1,46.1-176.8L1902.3,931.7z"/>
<polygon class="st1" points="640.8,719.1 1810.5,949.2 1385.3,1256.9 646.3,1462.4 "/>
<polygon class="st2" points="646.3,719.1 646.3,1462.4 127.5,1462.4 165.9,1051.3 "/>
<g>
	<path class="st3" d="M938,1212.3c-66.3-10-132.8-18.7-198.8-30.3c-76.8-13.5-153.2-29.5-229.8-44.5c6.9-7.4,13.8-14.7,20.7-22.1
		c22.6-6.6,45.3-13.2,70.5-20.6c3,6.6,7.5,16.7,10.7,23.7c26.2-11.1,49.4-19.2,70.9-30.5c13.7-7.2,24.9-18.9,37.3-28.6
		c13.2,12.7,26.4,25.4,39.6,38.2c27.1,23.3,54.1,46.6,86.6,74.5c9.9-42.9,4.2-66.3-30.5-75.7c-0.1-6.2-0.2-12.3-0.3-18.5
		c-6.3-9.6-12.5-19.2-18.8-28.8c4.7-10.3,12.1-20.2,13.5-30.9c1.5-11.4-2.5-23.5-4.2-35.3c-3.2-6.3-6.3-12.6-9.5-18.8
		c35.2,6.3,70.4,12.5,105.6,18.8c6,15.9,12,31.7,18,47.6c-26.7,0-53.3,0-88.9,0c31.9,20.3,51.4,34.7,72.7,45.8
		c17.4,9.1,37.8,16.6,35.4-17.5c9.5,0.1,19,0.2,28.5,0.4c0,9.4,0,18.8-0.1,28.2c-6.4,9.6-12.8,19.2-19.3,28.8
		c-36.2-4.6-28.3,27.8-33.9,45.1c-2.2,6.8,15.5,20,24.1,30.2C938.1,1198.6,938.1,1205.4,938,1212.3z"/>
	<path class="st4" d="M530.1,1115.5c-6.9,7.4-13.8,14.7-20.7,22.1c-5.9-1.3-11.8-2.6-17.7-3.9c-9.3-9.2-18.5-18.3-27.8-27.5
		c-9.9-3.3-19.7-6.6-29.6-9.9c-6.5,3-13,5.9-19.5,8.9c-2.9,0.1-5.9,0.2-8.8,0.4c-6.4-2.8-12.7-5.6-19.1-8.4c-3.1,0-6.2-0.2-9.3-0.5
		c12.8-21.8,25.5-43.6,38.3-65.5c50.7-5.6,55.7-48.8,66.9-89c-16.2,2.8-28.6,10.6-37.9,21.2c-6.4,7.2-5.9,22.1-13,26.7
		c-23.4,15.2-48.8,27.2-73.4,40.5c-6.4-6.3-12.8-12.5-19.2-18.8c-3.2-6.3-6.3-12.6-9.5-18.9c0-6.4,0.1-12.7,0.1-19.1
		c69.6-14,97.1-73.4,133.3-123.3c35.8-22,81.8-25.3,110.4-61c3.6-4.5,14.1-3.6,21.5-5.2c19.5,16,38.9,31.9,58.4,47.9
		c0,6,0,12.1,0,18.1c-3.2,3.3-6.4,6.7-9.7,10c-29,10.9-66.8,11.3-66.8,56.4c-23.7-5.1-47.4-10.3-64.6-14
		c6.7,41.4,13.3,81.7,20.3,124.8c-21.7,0-34.3,0-51,0c8.1,16.6,14.2,29.1,20.3,41.6C511.2,1084.6,520.7,1100.1,530.1,1115.5z"/>
	<path class="st4" d="M947.9,1116.4c6.4-9.6,12.8-19.2,19.3-28.8c47.3,24.5,68.6,72,53,118c58.2,8.6,79.9-11.5,71.6-65.8
		c-1.6-10.7-0.5-21.9-0.6-32.9c22.3,2.9,44.5,5.8,66.8,8.7c6.2,9.7,12.3,19.3,18.5,29c-32.5,0-61.9,2.3-38.3,47.4
		c0,18.9,0,37.8,0,56.8c-34.8-3.2-69.5-6.4-104.3-9.6c-31.6-6.4-63.2-12.7-94.9-19.1c-0.3-2.6-0.6-5.2-1.1-7.8
		c0.1-6.9,0.1-13.7,0.2-20.6C941.4,1166.6,944.7,1141.5,947.9,1116.4z"/>
	<path class="st5" d="M329.6,992.8c3.2,6.3,6.3,12.6,9.5,18.9c0,12.6,0,25.1-0.1,37.7c-6.2,9.6-12.4,19.2-18.6,28.8
		c0.2,8.3,0.3,16.7,0.5,25c-60.2-9.7-120.5-19.3-180.7-29c19.2-4.6,21.8-43.2,40.9-47.8c12.4-14.7,41.5,4.8,51.9-7.5
		c8.2,5.7,30.5,28.1,36.6,24.3c20.5-12.6,35.3-34.6,54-54.8C320.2,985.7,324.9,989.2,329.6,992.8z"/>
	<path class="st3" d="M339.1,1049.4c0-12.6,0-25.1,0.1-37.7c6.4,6.3,12.8,12.5,19.2,18.8c-9.4,34.1,12.8,16.5,23.9,13.7
		c11.6-2.9,22.4-8.6,33.6-13.1c-12.8,21.8-25.5,43.6-38.3,65.5c-6.4,3.2-12.8,6.3-19.2,9.5c-12.4-0.9-24.9-1.9-37.3-2.9
		c-0.2-8.4-0.3-16.7-0.5-25C326.7,1068.7,332.9,1059,339.1,1049.4z"/>
	<path class="st5" d="M358.3,1106.2c6.4-3.2,12.8-6.3,19.2-9.5c3.1,0.3,6.2,0.5,9.3,0.5c6.4,2.8,12.7,5.6,19.1,8.4
		c2.9-0.1,5.9-0.3,8.8-0.4c6.5-3,13-5.9,19.5-8.9c9.9,3.3,19.7,6.6,29.6,9.9c-0.1,5.8-0.3,11.6-0.4,17.4
		C428.5,1117.8,393.4,1112,358.3,1106.2z"/>
	<path class="st3" d="M463.5,1123.6c0.1-5.8,0.2-11.6,0.4-17.4c9.3,9.2,18.5,18.3,27.8,27.5C482.3,1130.4,472.9,1127,463.5,1123.6z"
		/>
	<path class="st6" d="M1520.2,1147c-12.9,48.9-56.6,63.2-94.6,84c-3.8-6.6-7.6-13.2-11.4-19.8c8.9-4.3,17.9-8.5,26.8-12.8
		c-11-12.4-19.9-28.2-33.4-36.6c-24.7-15.4-51.9-27.1-78.6-39c-5.1-2.3-13.1,1.9-19.8,3.1c-25.2-3.2-50.3-6.5-75.5-9.7
		c0.9-20.1,1.8-40.1,3-65.3c0,0-9.9-5.3-23.8-12.8c26.2-13.8,47.2-24.8,68.3-35.8c6.3,3.1,12.6,6.3,18.8,9.4
		c6.5,12.7,13,25.4,19.6,38.1c8.6,18.1,13.2,41,27.3,52.3c7.4,5.9,31.2-8.6,47.6-13.9c9.7-0.1,19.5-0.2,29.2-0.4
		c8.4,18,16.7,35.9,25.1,53.9c3.7-1.4,7.4-2.8,11.2-4.2c-0.8-12.5-1.5-24.9-2.6-42.2C1481.5,1115.1,1500.9,1131,1520.2,1147z"/>
	<path class="st7" d="M1747.5,1010.2c-16.3,16.2-32.6,32.4-48.9,48.6c-18.6,9.8-37.2,19.5-55.8,29.3c-16.3-13.6-32.7-27.1-56.7-47.1
		c-4.9,23.5-7.3,34.9-9.7,46.3c-16,3.3-32,6.6-48.1,9.9l0.1,0.1c9.3-21.9,18.7-43.9,28-65.8c7.5-2.4,16.2-3.2,22.2-7.5
		c44-32,87.6-64.3,143.2-22.6C1730.4,1004.3,1739,1007.3,1747.5,1010.2z"/>
	<path class="st5" d="M1138.2,1248.8c0-18.9,0-37.8,0-56.8c6.1,0.3,12.2,0.5,18.3,0.8c10,37.2,65.4,41.6,105.5,8.4
		c19.1,3.3,38.2,6.5,57.3,9.8c6.4,25.3,12.8,50.7,19.1,76c-6.5-0.2-12.9-0.3-19.4-0.5c3-36.2-27.9-35.9-49.3-41.2
		c-6.8-1.6-18.2,16-27.5,24.8C1207.5,1263,1172.9,1255.9,1138.2,1248.8z"/>
	<path class="st4" d="M1338.3,1287c-6.4-25.3-12.8-50.7-19.1-76c4.3-14.8,8.7-29.7,10.8-36.7c31.8,13.9,58,25.4,84.3,36.9
		c3.8,6.6,7.6,13.2,11.4,19.8C1396.6,1249.6,1367.5,1268.3,1338.3,1287z"/>
	<path class="st3" d="M1520.2,1147c-19.4-15.9-38.7-31.9-62.9-51.7c1.1,17.3,1.8,29.7,2.6,42.2c-3.7,1.4-7.4,2.8-11.2,4.2
		c-8.4-18-16.7-35.9-25.1-53.9c6.4-15.8,12.8-31.7,19.1-47.5c3.2,0,6.3,0,9.5,0c25.4,19,50.7,38.1,76.1,57.1l-0.1-0.1
		c6.2,15.5,12.4,30.9,18.6,46.4C1538,1144.7,1529.1,1145.8,1520.2,1147z"/>
	<path class="st5" d="M1546.9,1143.6c-6.2-15.5-12.4-30.9-18.6-46.4c16-3.3,32-6.6,48.1-9.9c5.6,10.3,11.3,20.6,16.9,30.8
		C1577.8,1126.6,1562.4,1135.1,1546.9,1143.6z"/>
	<path class="st4" d="M1593.3,1118.1c-5.6-10.3-11.3-20.6-16.9-30.8c2.4-11.4,4.8-22.8,9.7-46.3c24,20,40.4,33.6,56.7,47.1
		c-9.1,6.5-18.1,13.1-27.2,19.6c-3.7,2.3-7.3,4.6-11,6.9C1600.8,1115.8,1597,1117,1593.3,1118.1z"/>
	<path class="st7" d="M1242.1,1270.1c9.3-8.8,20.8-26.4,27.5-24.8c21.5,5.2,52.3,4.9,49.3,41.2c-9.5,1.1-18.9,2.2-28.4,3.3
		c-6.3-0.7-12.6-1.4-18.9-2C1261.8,1281.9,1252,1276,1242.1,1270.1z"/>
	<path class="st7" d="M1604.6,1114.7c3.7-2.3,7.3-4.6,11-6.9C1611.9,1110.1,1608.3,1112.4,1604.6,1114.7z"/>
	<path class="st3" d="M329.6,992.8c-4.7-3.6-9.4-7.2-5.8-4.4c-18.7,20.2-33.5,42.2-54,54.8c-6.1,3.8-28.4-18.5-36.6-24.3
		c-10.4,12.3-22.9,27-35.3,41.6c1-21.6-4.5-46.8,5-63.6c8.2-14.6,32.7-21.5,51.2-28.5c18.1-6.9,36-28.2,55-32.7
		c6.2,0,40.9-19,47.1-18.9c0.1,6.5-26.4,50.5-26.3,57C329.7,980.1,329.7,986.5,329.6,992.8z"/>
	<path class="st7" d="M329.8,973.8c-0.1-6.5-0.2-12.9-0.3-19.4c30.6-52.5,74.1-88.5,133.6-104C426.9,900.4,399.4,959.8,329.8,973.8z
		"/>
	<path class="st4" d="M919.6,1030.7c-6-15.9-12-31.7-18-47.6c1.8-40.4-16.8-60.2-58-57.3c-0.4-6.4-0.8-12.8-1.2-19.2
		c-0.1-9.2-0.1-18.5-0.2-27.7c37.7,0,75.4,0,113.1,0c0.3,4.3,0.5,8.6,0.8,12.9c9.6-11.8,19.2-23.5,28.7-35
		c14.1,8,26.7,15.2,39.3,22.3c6.4,6.2,12.9,12.4,19.3,18.6c3.7,21.3,17.3,55.7,9.5,61.5c-37.6,27.9-28.1,64.5-28.7,100.1
		c0.3,6.3,0.5,12.6,0.8,18.9c-19.2-6.2-38.5-12.5-57.7-18.7c-9.5-0.1-19-0.2-28.5-0.4C932.4,1049.6,926,1040.2,919.6,1030.7z
		 M985,914.9c-4-2.6-8-5.1-12-7.7c-8.2,16-26.7,35.8-22.5,47.1c8,21.3,29.2,37.7,44.9,56.1c4.9-3.1,9.8-6.2,14.7-9.3
		C1001.7,972.3,993.4,943.6,985,914.9z"/>
	<path class="st5" d="M843.6,925.8c41.1-2.9,59.8,16.9,58,57.3c-35.2-6.3-70.4-12.5-105.6-18.8c-7.1-14.8-14.1-29.6-21.7-45.5
		c-42.3-4.3-42.3-4.3-120.9-68.6c0-6,0-12.1,0-18.1c3.5-6.4,7-12.9,10.6-19.3c15.5-3.2,31.1-6.4,46.6-9.6
		c-1.8,23.6-3.5,47.1-6.3,84.9c13.8-20.7,19.5-29.2,25.2-37.7c31.9,8.6,54.7,47.4,94.9,28.1c6,0.1,12,0.2,18,0.4
		c0.1,9.2,0.1,18.5,0.2,27.7c-9.3,9.3-18.5,18.5-27.8,27.8c3,3.2,5.9,6.3,8.9,9.5C830.2,937.9,836.9,931.9,843.6,925.8z"/>
	<path class="st6" d="M653.3,850.3c78.6,64.3,78.6,64.3,120.9,68.6c7.6,15.9,14.6,30.7,21.7,45.5c3.2,6.3,6.3,12.6,9.5,18.8
		c-31.8-6.3-63.5-12.6-95.3-18.9c-15.9,9.4-31.7,18.8-47.6,28.2c3.4-28.2,6.8-56.4,10.2-84.5c-2.8-0.7-5.6-1.5-8.4-2.2
		c-16.4,32.1-32.8,64.3-49.2,96.4l0,0c-45.9,0.4-22.4,36.1-28.9,56.5c-6.2,3.4-12.4,6.8-18.5,10.2c-3.3-0.1-6.5-0.2-9.8-0.2
		c0-6.3-0.1-12.5-0.1-18.8c3.3-28.3,6.7-56.6,10-85c55.7-5.3,87.1-48.6,75.7-104.6C646.9,856.9,650.1,853.6,653.3,850.3z"/>
	<path class="st7" d="M967.3,1059.4c19.2,6.2,38.5,12.5,57.7,18.7c22,3.3,43.9,6.6,65.9,9.9c0.1,6.3,0.2,12.6,0.3,18.9
		c0.1,11-1,22.1,0.6,32.9c8.3,54.3-13.4,74.4-71.6,65.8c15.7-46-5.6-93.5-53-118C967.2,1078.2,967.2,1068.8,967.3,1059.4z
		 M1075.3,1111.1c-1.3-2.4-2.7-4.8-4-7.3c-1.9,1.3-4,2.5-5.7,4.1c-0.3,0.3,1,3.5,1.8,3.6C1070,1111.9,1072.6,1111.3,1075.3,1111.1z"
		/>
	<path class="st5" d="M567.8,1068.9c6.2-3.4,12.4-6.8,18.5-10.2c17.4,7.5,34.7,14.9,54.8,23.5c1.1-14,2.1-27.6,3.2-41.3
		c25.1,6.2,50.1,12.4,75.2,18.6c-12.3,9.7-23.6,21.4-37.3,28.6c-21.5,11.3-44.7,19.4-70.9,30.5c-3.2-7.1-7.8-17.2-10.7-23.7
		c-25.2,7.4-47.8,14-70.5,20.6c-9.4-15.5-18.8-30.9-28.3-46.4c18.7-6.4,37.4-12.8,56.1-19.2c0,6.3,0.1,12.5,0.1,18.8
		C561.3,1068.8,564.6,1068.9,567.8,1068.9z"/>
	<path class="st4" d="M719.5,1059.6c-25.1-6.2-50.1-12.4-75.2-18.6c-9.7-12.9-19.4-25.8-29-38.8l0,0c15.8-3.2,31.6-6.5,47.4-9.7
		c15.9-9.4,31.7-18.8,47.6-28.2c24.2,25.1,48.7,49.9,57.2,85.4c-2.7,16-5.5,32-8.2,48C745.9,1085,732.7,1072.3,719.5,1059.6z"/>
	<path class="st5" d="M759.1,1097.7c2.7-16,5.5-32,8.2-48c9.6-0.2,19.2-0.3,28.8-0.5c6.3,9.6,12.5,19.2,18.8,28.8
		c-8.4,2.4-16.8,4.8-25.2,7.2c0.4,2.5,0.7,5.1,1.1,7.6c8.2,1.2,16.3,2.5,24.5,3.7c34.6,9.4,40.4,32.8,30.5,75.7
		C813.2,1144.3,786.2,1121,759.1,1097.7z"/>
	<path class="st7" d="M796.1,1049.3c-9.6,0.2-19.2,0.3-28.8,0.5c-8.5-35.6-33-60.4-57.2-85.4c31.8,6.3,63.5,12.6,95.3,18.9
		c1.6,11.8,5.7,23.9,4.2,35.3C808.2,1029.2,800.8,1039.1,796.1,1049.3z"/>
	<path class="st7" d="M919.6,1030.7c6.4,9.4,12.8,18.9,19.2,28.3c2.4,34.1-18,26.7-35.4,17.5c-21.2-11.2-40.8-25.5-72.7-45.8
		C866.3,1030.7,892.9,1030.7,919.6,1030.7z"/>
	<path class="st5" d="M947.9,1116.4c-3.3,25.1-6.5,50.2-9.8,75.3c-8.6-10.3-26.3-23.4-24.1-30.2
		C919.6,1144.2,911.7,1111.8,947.9,1116.4z"/>
	<path class="st7" d="M815.2,1096.6c-8.2-1.2-16.3-2.5-24.5-3.7c-0.4-2.5-0.7-5.1-1.1-7.6c8.4-2.4,16.8-4.8,25.2-7.2
		C815,1084.3,815.1,1090.4,815.2,1096.6z"/>
	<path class="st7" d="M557.9,1049.9c-18.7,6.4-37.4,12.8-56.1,19.2c-6.1-12.5-12.2-25-20.3-41.6c16.7,0,29.3,0,51,0
		c-7-43.1-13.5-83.4-20.3-124.8c17.2,3.7,40.9,8.9,64.6,14c5.8,6.7,11.6,13.5,16.7,19.4c-17.4,2.8-30.2,4.9-42.9,7
		c5.7,7.3,11.5,14.6,17.2,21.8C564.6,993.2,561.3,1021.5,557.9,1049.9z"/>
	<path class="st5" d="M568,964.9c-5.7-7.3-11.5-14.6-17.2-21.8c12.7-2.1,25.4-4.1,42.9-7c-5.1-5.9-10.9-12.6-16.7-19.4
		c0-45.1,37.8-45.6,66.8-56.4C655,916.3,623.7,959.6,568,964.9z"/>
	<path class="st7" d="M415.8,1031.2c-11.2,4.5-22,10.2-33.6,13.1c-11,2.8-33.2,20.4-23.9-13.7c24.6-13.2,50.1-25.3,73.4-40.5
		c7.1-4.6,6.6-19.5,13-26.7c9.4-10.5,21.8-18.3,37.9-21.2C471.5,982.5,466.6,1025.6,415.8,1031.2z"/>
	<path class="st3" d="M434.3,1096.4c-6.5,3-13,6-19.5,8.9C421.3,1102.3,427.8,1099.3,434.3,1096.4z"/>
	<path class="st3" d="M406,1105.7c-6.4-2.8-12.7-5.6-19.1-8.4C393.3,1100,399.6,1102.9,406,1105.7z"/>
	<path class="st5" d="M1090.9,1088c-22-3.3-44-6.6-65.9-9.9c-0.3-6.3-0.5-12.6-0.8-18.9c15.3-2.5,30.6-5,46-7.5
		c1.5,4.1,2.9,8.3,4.4,12.4c2.3-8,4.5-16.1,6.8-24.1c24.7,1.4,49.6,5.3,74.1,3.2c11-1,21-13.8,31.5-21.2
		c31.4-6.6,62.8-13.2,94.3-19.8c-21,11-42,22.1-68.3,35.8c13.8,7.4,23.7,12.8,23.8,12.8c-1.1,25.2-2.1,45.3-3,65.3
		c0.5,33.3,2.5,67.8-46.9,65.7c-3.4-12.4-6.9-24.8-10.3-37.2c-6.2-9.7-12.3-19.3-18.5-29c-0.9-14.4-1.8-28.7-2.9-46.2
		C1129.1,1077,1110,1082.5,1090.9,1088z"/>
	<path class="st3" d="M1090.9,1088c19.1-5.5,38.2-11.1,64.1-18.6c1.1,17.5,2,31.8,2.9,46.2c-22.3-2.9-44.5-5.8-66.8-8.7
		C1091.1,1100.7,1091,1094.4,1090.9,1088z"/>
	<path class="st3" d="M1176.4,1144.6c3.4,12.4,6.9,24.8,10.3,37.2c-10.1,3.7-20.2,7.3-30.3,11c-6.1-0.3-12.2-0.5-18.3-0.8
		C1114.5,1147,1144,1144.6,1176.4,1144.6z"/>
	<path class="st7" d="M339.1,1049.4c-6.2,9.6-12.4,19.2-18.6,28.8C326.7,1068.7,332.9,1059,339.1,1049.4z"/>
	<path class="st3" d="M710.5,803.3c-15.5,3.2-31.1,6.4-46.6,9.6c9.6-53.8,26.9-63.5,102.8-57.1c3.4,2.9,6.8,5.7,10.2,8.6
		c6.3,0.2,12.7,0.4,19,0.7c6.1,3.3,12.1,6.5,18.2,9.8c0.1,3,0,5.9-0.3,8.9c-29.6-3.4-59.2-6.7-93-10.5
		C718.2,780.6,714.4,791.9,710.5,803.3z"/>
	<path class="st8" d="M776.8,764.3c-3.4-2.9-6.8-5.7-10.2-8.6C770,758.6,773.4,761.5,776.8,764.3z"/>
	<path class="st7" d="M1518.9,907.9c27.2,3.3,48,13.5,49.3,45c-27.4,4.1-54.8,8.2-85.6,12.7c-0.5,9.5-1.1,23-1.7,36.4
		c-9.5,12.7-19.1,25.4-28.6,38.1c-3.2,0-6.3,0-9.5,0c-20-48.8-51.4-56.3-115.1-25.1c10.3,11.8,20.1,22.9,29.8,34
		c-12.7,0.2-25.3,0.4-38,0.6c-6.5-12.7-13-25.4-19.6-38.1c9.5-15.8,19.1-31.6,28.6-47.4c22.3-6.5,44.7-13,67-19.5
		c12.1,3,24.3,6,36.4,9C1461,938.4,1490,923.2,1518.9,907.9z"/>
	<path class="st4" d="M1328.6,964.2c-9.5,15.8-19.1,31.6-28.6,47.4c-6.3-3.1-12.6-6.3-18.8-9.4c-31.4,6.6-62.8,13.2-94.3,19.8
		c-6.7-3.3-13.4-6.6-20-9.9c3.1-9.6,6.2-19.2,9.3-28.8c-2.9-6.4-5.7-12.8-8.6-19.2c-6.3-6.7-12.5-13.3-18.8-20
		c3-14.9,5.9-29.8,9.5-47.8c30.4,16.3,53,29.3,76.3,40.7c32.3,15.8,47.1,3.5,46.4-31c15.7,6.6,31.5,13.1,47.2,19.7
		C1328.4,938.5,1328.5,951.3,1328.6,964.2z"/>
	<path class="st4" d="M1156.5,1192.8c10.1-3.7,20.2-7.3,30.3-11c49.4,2.2,47.4-32.3,46.9-65.7c25.2,3.2,50.3,6.5,75.5,9.7
		c4,37.4-21.8,56.3-47.2,75.4C1221.8,1234.5,1166.5,1230,1156.5,1192.8z"/>
	<path class="st7" d="M1261.9,1201.2c25.4-19.1,51.2-38,47.2-75.4c6.7-1.2,14.7-5.4,19.8-3.1c26.8,11.9,53.9,23.5,78.6,39
		c13.5,8.4,22.4,24.2,33.4,36.6c-8.9,4.3-17.9,8.5-26.8,12.8c-26.2-11.5-52.4-22.9-84.3-36.9c-2.1,7-6.4,21.9-10.8,36.7
		C1300.1,1207.7,1281,1204.5,1261.9,1201.2z"/>
	<path class="st4" d="M1357.6,1049.1c-9.8-11.1-19.5-22.3-29.8-34c63.7-31.1,95.1-23.7,115.1,25.1c-6.4,15.8-12.8,31.7-19.1,47.5
		c-9.7,0.1-19.5,0.2-29.2,0.4C1382.2,1075.1,1369.9,1062.1,1357.6,1049.1z"/>
	<path class="st5" d="M1357.6,1049.1c12.3,13,24.6,26,36.9,39c-16.4,5.3-40.2,19.8-47.6,13.9c-14.1-11.3-18.7-34.2-27.3-52.3
		C1332.2,1049.6,1344.9,1049.4,1357.6,1049.1z"/>
	<path class="st4" d="M1480.9,1002c0.6-13.4,1.3-26.8,1.7-36.4c30.8-4.6,58.2-8.6,85.6-12.7c9.1,10.2,18.3,20.4,26.9,30
		c91-40.2,91-40.2,126.6,18.4c-55.5-41.7-99.1-9.5-143.2,22.6c-6,4.4-14.7,5.1-22.2,7.5C1531.3,1021.7,1506.1,1011.9,1480.9,1002z"
		/>
	<path class="st5" d="M1480.9,1002c25.2,9.8,50.3,19.6,75.5,29.4c-9.3,21.9-18.7,43.9-28,65.8c-25.4-19-50.7-38.1-76.1-57.1
		C1461.9,1027.5,1471.4,1014.8,1480.9,1002z"/>
	<path class="st7" d="M1281,906c0.7,34.5-14.1,46.8-46.4,31c-23.4-11.4-46-24.4-76.3-40.7c-3.6,18-6.5,32.9-9.5,47.8
		c-18.9,5-50.6-10.9-48,29.2c-44.4,11.2-29.8,39.6-19.4,66.7c-2.3,8-4.5,16.1-6.8,24.1c-1.5-4.1-2.9-8.3-4.4-12.4
		c-15.3,2.5-30.6,5-46,7.5c0.6-35.6-8.9-72.1,28.7-100.1c7.8-5.8-5.8-40.3-9.5-61.5c-6.4-6.2-12.9-12.4-19.3-18.6
		c-12.6-7.2-25.2-14.3-39.3-22.3c-9.4,11.5-19.1,23.3-28.7,35c-0.3-4.3-0.5-8.6-0.8-12.9c-37.7,0-75.4,0-113.1,0
		c-6-0.1-12-0.2-18-0.4c6.3-18.6,12.7-37.2,19-55.9c31.3,5.6,62.7,11.1,94,16.7c20.6-3.3,41.2-6.6,58.6-9.4
		c16.5,3.6,32.2,6.9,47.9,10.3c9.4,6.8,18.7,13.6,28.1,20.3c8.9,52,47.5,17.5,63.6,14.4c30.1-5.8,54.9-16.8,76,14.2
		c4.3-3.7,8.7-7.4,13-11C1243.2,887.4,1262.1,896.7,1281,906z"/>
	<path class="st6" d="M1224.3,878.1c-4.3,3.7-8.7,7.4-13,11c-21-31-45.9-20.1-76-14.2c-16.1,3.1-54.7,37.6-63.6-14.4
		c19.2-2.7,40-1.7,57.2-9C1169.4,834.3,1201.3,837.8,1224.3,878.1z"/>
	<path class="st6" d="M1328.6,964.2c-0.1-12.8-0.2-25.7-0.4-38.5c25.4-27.4,27.8-26.7,67.3,19
		C1373.3,951.2,1350.9,957.7,1328.6,964.2z"/>
	<path class="st6" d="M1518.9,907.9c-29,15.2-57.9,30.5-86.9,45.7C1442.5,903.4,1473.4,891.8,1518.9,907.9z"/>
	<path class="st6" d="M986.2,802.6c12.5,0.2,24.9,0.3,37.4,0.5c6.7,12.4,13.4,24.8,20.1,37.2c-15.7-3.4-31.4-6.8-47.9-10.3
		c-17.4,2.8-38,6.1-58.6,9.4C953.5,827.1,969.9,814.9,986.2,802.6z"/>
	<path class="st7" d="M985,914.9c8.4,28.7,16.7,57.5,25.1,86.2c-4.9,3.1-9.8,6.2-14.7,9.3c-15.7-18.4-36.8-34.8-44.9-56.1
		c-4.3-11.3,14.2-31.1,22.5-47.1C977,909.7,981,912.3,985,914.9z"/>
	<path class="st7" d="M843.6,925.8c-6.7,6-13.4,12.1-20.1,18.1c-3-3.2-5.9-6.3-8.9-9.5c9.3-9.3,18.5-18.5,27.8-27.8
		C842.8,913,843.2,919.4,843.6,925.8z"/>
	<path class="st6" d="M1024.1,879.1c6.4,6.2,12.9,12.4,19.3,18.6C1037,891.4,1030.5,885.2,1024.1,879.1z"/>
	<path class="st4" d="M843.2,822.7c-6.3,18.6-12.7,37.2-19,55.9c-40.2,19.3-63-19.5-94.9-28.1c0.7-14.4,1.3-28.9,1.5-32.5
		c37.5-2.7,66.3-4.8,95-6.9C831.6,814.9,837.4,818.8,843.2,822.7z"/>
	<path class="st7" d="M825.8,811c-28.8,2.1-57.5,4.2-95,6.9c-0.2,3.6-0.8,18-1.5,32.5c-5.7,8.5-11.4,17-25.2,37.7
		c2.8-37.8,4.6-61.4,6.3-84.9c3.9-11.3,7.7-22.6,10.3-30.1c33.8,3.8,63.4,7.2,93,10.5C817.8,792.8,821.8,801.9,825.8,811z"/>
	<path class="st7" d="M615.2,1002.2c9.7,12.9,19.3,25.8,29,38.8c-1,13.6-2.1,27.3-3.2,41.3c-20-8.6-37.4-16.1-54.8-23.5
		C592.8,1038.3,569.3,1002.6,615.2,1002.2z"/>
	<path class="st7" d="M662.6,992.5c-15.8,3.2-31.6,6.5-47.4,9.7c16.4-32.1,32.8-64.3,49.2-96.4c2.8,0.7,5.6,1.5,8.4,2.2
		C669.4,936.2,666,964.4,662.6,992.5z"/>
	<path class="st7" d="M567.8,1068.9c-3.3-0.1-6.5-0.2-9.8-0.2C561.3,1068.8,564.6,1068.9,567.8,1068.9z"/>
	<path class="st3" d="M1075.3,1111.1c-2.6,0.2-5.3,0.7-7.8,0.4c-0.8-0.1-2.2-3.3-1.8-3.6c1.6-1.6,3.7-2.8,5.7-4.1
		C1072.6,1106.3,1073.9,1108.7,1075.3,1111.1z"/>
	<path class="st6" d="M1081.3,1040c-10.4-27.1-25-55.5,19.4-66.7c22,12.9,44.1,25.9,66.1,38.8c6.7,3.3,13.3,6.6,20,9.9
		c-10.5,7.4-20.5,20.2-31.5,21.2C1131,1045.3,1106.1,1041.4,1081.3,1040z"/>
	<path class="st5" d="M1166.9,1012.1c-22-12.9-44.1-25.9-66.1-38.8c-2.5-40.1,29.1-24.2,48-29.2c6.3,6.7,12.5,13.3,18.8,20
		c2.9,6.4,5.7,12.8,8.6,19.2C1173.1,992.9,1170,1002.5,1166.9,1012.1z"/>
	<path class="st6" d="M1176.2,983.3c-2.9-6.4-5.7-12.8-8.6-19.2C1170.5,970.5,1173.3,976.9,1176.2,983.3z"/>
</g>
<path class="st9" d="M87.5,1064.9l14.2,538.5c1,37.7,12.2,74.4,32.5,106.1c27.8,43.4,74.6,96.6,142.9,111.1l815.8,153.9
	c19.9,3.7,39.5,8.3,59,13.9c42.4,12.1,143.8,29.9,185.8-60.1c0,0,20.5-61.5,17.9-120.4l0.2-494.4L87.5,1064.9z"/>
<path class="st0" d="M648.5,683.2l-561,381.7l1268.3,248.5l546.5-381.7L648.5,683.2z M1332.5,1272.4L164.3,1049.5L640.8,719
	l1169.7,230.1L1332.5,1272.4z"/>
<polygon class="st10" points="893.2,131.1 1851.9,304 1876.9,907.9 663.9,664.4 "/>
<path class="st11" d="M930.9,136.4l17,215.7c0,0,13.1,87.7-63.1,142.8l-212,169.5L615.2,85L930.9,136.4z"/>
<path class="st12" d="M1869.2,284.8L598.4,58.1l50.1,625.1l1253.8,248.5L1869.2,284.8z M672.8,664.4L635,96.2l1201.2,220.5
	l27.3,571.1L672.8,664.4z"/>
<path class="st10" d="M598.4,58.1c0,0,68.3-76.9,251.7-53.8c0,0,938.5,169.1,944.2,171s70.6,25.3,74.9,109.5L598.4,58.1z"/>
<g>
	<path class="st13" d="M625.9,1675.1c-9.6-2.1-19-3.7-28.2-6.1c-7.1-2-14.3-4.4-20.9-7.6c-7.4-3.5-14.9-7.4-21.5-12.2
		c-6.5-4.6-12.1-10.6-17.8-16.1c-1.2-1.1-2-1.6-3.7-1.2c-10.7,2.2-21.7,3.3-32.7,3.1c-9-0.2-18.2-0.9-27.2-2
		c-8.3-1-16.6-2.3-24.7-4.4c-10.5-2.6-20.6-6.2-30.1-11.5c-6.1-3.4-12.4-6.6-18.2-10.5c-5.6-3.9-11-8.4-16.1-13.1
		c-8.7-7.8-16-17-22.2-26.8c-8.8-13.9-15.1-28.8-18.8-44.9c-2.6-11.2-4.8-22.5-4.8-34c0.1-10.4,0.1-20.6,0.5-31
		c0.5-12.1,2.6-23.9,5.4-35.6c2.3-9.8,4.6-19.5,7.8-29c2.7-8.2,6.2-16,9.8-23.8c2.7-5.9,5.7-11.7,9.2-17.2c3.1-4.9,6.5-9.5,10.1-14
		c3.1-3.9,6.3-7.6,9.9-11c8.7-8.8,18.4-16,29.3-21.8c13.8-7.4,28.6-11.8,43.9-14c9.5-1.3,19.2-1.6,28.8-1.3
		c11.2,0.4,22.5,1.3,33.6,2.9c8.5,1.2,17.1,3.5,25.5,6c7.6,2.2,15,5,22.1,8.3c6.3,2.9,12.4,6.6,18.4,10.4c5.2,3.3,10.5,7,15.1,11
		c8.4,7.2,15.9,15.4,22.2,24.7c9.4,13.8,16.1,28.8,20.1,44.9c2.7,11.1,4.8,22.3,4.9,33.8c0.1,9.9,0.5,19.8-0.2,29.5
		c-0.9,10.5-2.4,20.9-4.4,31.1c-1.6,8.5-3.5,17.2-6.5,25.5c-3.7,10.4-8.2,20.4-12.7,30.4c-2.8,6.2-6.2,12.1-9.6,17.9
		c-2.8,4.6-6,9.2-9.2,13.7c-2.1,3.1-4.3,6.1-6.5,9.2c-2.9,3.9-6.1,7.8-9.2,11.7c4.5,7.2,11.6,10,19.4,11.8c6.1,1.3,12.2,2.6,18.2,4
		c0.6,0.1,1.3,1.5,1.2,2.1c-1.6,9.6-3.4,19.3-5.1,28.9c-1.3,7.2-2.7,14.5-3.9,21.7C626.7,1670.4,626.4,1672.6,625.9,1675.1z
		 M451.9,1422.7c-7.1,0.9-12.6,1.1-18.1,2.1c-12,2.1-23.3,6-33.9,11.7c-5.4,2.9-10.1,6.6-12.1,12.7c-1.2,4-2.1,8.3-2.3,12.4
		c-0.2,2.8,0.1,6.1,1.3,8.7c3.7,7.8,10.3,12.2,18.5,14.4c7.6,2,13.8,6,18.1,12.4c3.2,4.9,3.5,10.6,3.8,16.2c0.5,9.2,1.6,18.2,5,26.7
		c4,10,8.9,19.4,18.3,25.5c4.9,3.2,10.1,4.6,15.9,4.5c6.2-0.1,11.7-2.7,17-5.2c5.7-2.8,11-6.3,15.3-11.2c4.1-4.8,8.4-9.5,12.2-14.6
		c2.3-3.2,4.1-6.8,5.9-10.5c3.4-7.7,7.2-15.3,9.8-23.2c2.3-7.2,3.7-14.8,4.9-22.2c1.6-9.3,1.7-18.5-1.6-27.5
		c-2.9-7.9-7.4-14.6-14.9-19c-3.5-2.1-7.4-3.9-11.3-5.1c-8.5-2.6-17.2-5.2-26-6.7C468.6,1423.4,459.4,1423.2,451.9,1422.7z
		 M415.6,1395.5c0.9,3.4,2.1,9.9,4.4,16c2.3,6.3,5,6.8,10.7,5.9c7.1-1.1,13.3-4.9,19.3-8.7c5-3.2,9.8-6.8,14.3-10.6
		c4.1-3.4,8.2-7.2,11.7-11.2c4.3-4.9,7.9-10.3,12-15.5c3.5-4.6,5.6-9.8,6.8-15.4c0.7-3.8-1.5-7.1-5.2-8.3c-4.8-1.5-9.5-0.6-14.3,0.5
		c-14,3.2-27.3,8.5-40.6,13.8c-6.2,2.4-11.3,6.6-14.8,12.3C416.5,1379.8,415.5,1386,415.6,1395.5z M569.9,1463
		c9.6-0.7,20.6-2,30-9.6c6.2-5,10.6-11.1,13.3-18.2c2.3-6.3,3.8-13.1,4.5-19.8c0.6-5.6-1.3-9.9-8.2-10.1c-4.8-0.1-9.8,0.1-14.3,1.3
		c-8.2,2.2-16.2,4.8-24,8.1c-9.9,4.3-20.4,7.6-28.7,14.9c-4.5,4-7.8,10-4.5,16.6c2.1,4.1,5.1,7.2,8.7,9.8c3.4,2.6,7,5.5,11.5,6.1
		C562.2,1462.5,566.3,1462.8,569.9,1463z M576.8,1366.1c-0.2-4.4-0.2-4.4-4.4-5.1c-3.5-0.6-7.1-1.3-10.7-2
		c-10.5-1.8-21-2.4-31.5,0.1c-10.3,2.4-17.8,8.5-21.7,18.3c-3.8,9.6-4,19.6-3.7,29.9c0.1,3.9,1.7,7,5.1,7.7c3.4,0.7,7.3,0.6,10.7,0
		c8.3-1.6,16-5.2,23.3-9.3c9.4-5.2,18.7-10.6,25.3-19.4C573.9,1380.4,576.7,1373.7,576.8,1366.1z M601.7,1481.8
		c-3.5,0.9-7.1,1.5-10.5,2.7c-9.8,3.7-18.8,8.5-27.3,14.5c-9.5,6.6-19,13.1-28.2,20.1c-2.7,2-4.3,5.4-3.4,9.3
		c1.2,5.6,5.2,9,9.9,11.6c4.1,2.3,8.5,4.1,12.9,5.6c4.8,1.6,9.8,2.9,15,2.3c7.7-0.9,13.3-5.1,18.1-10.7c5.9-7,10-15,13.2-23.6
		c2.7-7.4,4.4-15.1,6.8-22.7C609.8,1485.7,608.2,1482.7,601.7,1481.8z"/>
	<path class="st13" d="M807.7,1635.1c9.5,25.3,19,50.4,28.7,75.9c-3.5-0.5-6.5-1-9.5-1.5c-9.4-1.6-18.9-3.3-28.3-5
		c-8.3-1.5-16.7-2.9-25-4.4c-5-0.9-9.9-1.7-14.9-2.4c-2.3-0.4-3.8-1.3-4.6-3.5c-5.4-13.9-10.7-27.8-16.2-41.7
		c-1.5-3.8-2.9-7.4-4.4-11.2c-0.2-0.6-0.7-1.1-1.3-2.1c-3.1,17.7-6,34.8-9,52.4c-23.1-4-46.1-7.9-69.3-12
		c2.4-13.8,4.9-27.1,7.2-40.5c2.2-12.7,4.1-25.4,6.3-38.1c2-11.5,4.1-22.9,6.1-34.4c1.8-10.5,3.4-21,5.2-31.5
		c1.8-10.4,3.8-20.7,5.5-31.1c1.8-10.6,3.5-21.1,5.2-31.7c0.2-1.8,1.1-2.4,2.8-2.2c8.1,1.3,16.1,2.8,24.3,4.1
		c9.4,1.6,18.8,3.2,28.1,4.9c11.5,2.1,23.1,3.7,34.3,6.6c8.5,2.2,16.8,5.9,24.9,9.6c9.9,4.6,18.7,11.2,25.8,19.4
		c10.3,11.7,17.1,25.1,18.5,41.1c1,10.7,0.6,21.2-2.3,31.5c-1.6,5.6-3.1,11.5-5.7,16.6c-3.9,7.4-8.7,14.4-15.3,19.8
		c-4.9,3.9-10.4,7.1-15.6,10.6C808.5,1634.5,808.1,1634.7,807.7,1635.1z M741.2,1584.7c6.5,1.7,12.8,2.1,19.2,1
		c5.4-1,10.1-2.9,13.7-7.4c2.4-3.3,3.5-7,4.3-10.7c2.1-11.1-2-18.1-11-23.3c-4.8-2.7-10-4-15.3-5.2c-2.2-0.5-3.1,0.2-3.3,2
		c-1.1,5.9-2,11.7-2.9,17.7C744.1,1567,742.7,1575.7,741.2,1584.7z"/>
	<path class="st13" d="M1057.5,1533.3c-2.1,12.3-4.1,24.4-6.2,36.5c-2,11.6-4.1,23.1-6.1,34.7c-2,11.6-3.8,23.2-5.7,34.8
		c-2,11.1-3.8,22.2-6.3,33.2c-2,8.4-5.6,16.4-10.3,23.9c-9.9,16.1-24.2,25.6-42.2,30.4c-14.3,3.7-28.6,3.7-43,1.8
		c-12.1-1.6-23.9-4.4-35.3-9c-7.7-3.2-14.8-7.2-21.4-12.4c-12-9.3-20-21.1-24-35.6c-3.5-12.7-3.5-25.5-1.5-38.4
		c2-11.7,3.8-23.3,5.9-35c2.2-12.7,4.5-25.3,6.7-37.8c2-11.6,3.8-23.2,5.7-34.7c1.3-7.7,2.8-15.4,4.1-23.4
		c23.1,3.9,45.9,7.8,69.1,11.8c-1,5.6-2,11.2-2.9,16.8c-1.6,9.5-3.2,19.2-4.9,28.7c-1.6,9.2-3.2,18.2-4.8,27.3
		c-1.5,8.3-2.9,16.5-4.3,24.8c-1.5,8.3-2.9,16.5-4.1,24.9c-0.6,4.5-1.3,9.2-1,13.5c0.7,8.3,5.7,12.8,13.8,14.9
		c4.8,1.2,9.6,2,14.6,0.4c4.9-1.6,8.2-4.8,10.1-9.4c3.5-8.5,4.1-17.7,5.9-26.7c1.8-9.4,3.3-18.8,4.9-28.2c1.6-9.3,3.2-18.5,4.8-27.8
		c1.3-8.2,2.8-16.4,4.1-24.5c1.5-8.4,2.9-16.7,4.4-25.1c0.2-1.8,0.5-2.4,2.8-2.1c9.3,1.8,18.7,3.2,27.9,4.8
		c8.3,1.5,16.6,2.9,24.9,4.4c4.5,0.9,9.2,1.6,13.7,2.4C1057.2,1533.1,1057.3,1533.2,1057.5,1533.3z"/>
	<path class="st14" d="M1038,1741.9c0.9-5,1.6-9.9,2.4-14.9c1.6-9.4,3.3-18.9,5-28.3c0.2-1.3,0.4-2.6,0.6-3.9
		c0.5-2.2,3.5-3.7,6.1-3.2c12.6,2.3,25.3,4.5,37.8,6.7c2.3,0.4,4.5,0.7,6.8,1.2c2.1,0.4,3.2,1.7,2.9,3.8c-0.5,4-1,8.2-1.7,12.2
		c-1.6,9.5-3.3,19-5,28.6c-0.4,2.4-0.7,4.8-1.2,7.2c-0.4,1.8-2.7,3.4-4.6,3.2c-15.1-2.6-30.3-5-45.4-7.7
		C1039.5,1746.1,1037.6,1744.7,1038,1741.9z"/>
	<path class="st14" d="M576.8,1366.1c-0.1,7.6-2.9,14.3-7.6,20.3c-6.6,8.8-15.9,14.3-25.3,19.4c-7.3,4-15,7.7-23.3,9.3
		c-3.5,0.7-7.3,0.7-10.7,0c-3.5-0.7-5-3.8-5.1-7.7c-0.4-10.1-0.1-20.3,3.7-29.9c3.9-9.9,11.5-15.9,21.7-18.3c10.5-2.6,21-2,31.5-0.1
		c3.5,0.6,7.1,1.3,10.7,2C576.6,1361.7,576.6,1361.7,576.8,1366.1z"/>
</g>
<g>
	<path class="st15" d="M1584.4,1375.5c4-1.2,8.1-2.4,12.1-3.7C1592.4,1373.1,1588.4,1374.3,1584.4,1375.5z"/>
	<path class="st16" d="M1600.3,1319.6c1.7,2.4,3.7,13.3,3.1,16.4c4.2,36,28,31.1,45.2,15.9c12.3-10.9,27.7-18.5,42.1-26.9
		c54.4-32,115.5-60.1,82-142.6c-2-4.9-0.8-11.1-1-16.8l1.5-1.1c5.1,0.1,10.1,0.2,15.2,0.3c4.5,23.3,9,46.6,13.5,69.9
		c-0.1,5-0.2,10-0.3,15c-7.2,22.6-21.4,46.6-39.4,60.6c-40,31-84.6,56-127.4,83.4c-18.3-5.6-47.6-6.6-52.4-17.9
		c-9.3-21.9-4.7-49.7-5.9-75l0.6-0.5c5.7,0.3,11.4,0.5,17.1,0.8l1.1,1.5C1596.9,1308.3,1598.6,1313.9,1600.3,1319.6z"/>
	<path class="st15" d="M1771.6,1165.7c0.3,5.6-1,11.8,1,16.8c33.5,82.5-27.5,110.5-82,142.6c-14.4,8.5-31,14.8-42.1,26.9
		c-13.9,15.2-41,20.1-45.2-15.9c11.5-2.8,22.9-5.7,34.4-8.5c31.2-18.7,64.8-34.4,92.4-57.4c11.6-9.7,12.7-34.4,14.3-52.7
		c1.5-16.5-2.7-33.6-4.4-50.4C1750.6,1166.6,1761.1,1166.1,1771.6,1165.7z"/>
	<path class="st15" d="M1576.4,1300.8c0.5,24-2.8,54.5,5.9,75c4.7,11.2,33.4,12.3,51.7,17.7c0.3,0.1,0.3,0.5,0,0.6
		c-33.2,20.4-70.6,7.3-80.2-28.4c-4.1-15.3-8-30.7-12-46c0-3,0.1-5.8,0.1-8.7l2-13.6C1562.3,1299.6,1558.1,1298.5,1576.4,1300.8z"/>
</g>
</svg>
